<?xml version="1.0" encoding="UTF-8"?>
<svg version="1.1" xmlns="http://www.w3.org/2000/svg" width="717" height="651">
<path d="M0 0 C236.61 0 473.22 0 717 0 C717 214.83 717 429.66 717 651 C480.39 651 243.78 651 0 651 C0 436.17 0 221.34 0 0 Z " fill="#FEFEFE" transform="translate(0,0)"/>
<path d="M0 0 C1.19372314 -0.00128164 1.19372314 -0.00128164 2.41156191 -0.00258917 C5.05080106 -0.00422278 7.68997518 0.00124236 10.32920837 0.00672913 C12.23198953 0.00701148 14.13477079 0.00685232 16.03755188 0.00628662 C21.18355864 0.00600054 26.32954194 0.01186674 31.47554326 0.01886058 C36.86071862 0.02512556 42.24589456 0.0257004 47.631073 0.02688599 C57.81995223 0.02999004 68.0088207 0.03819093 78.1976952 0.04823548 C89.80106742 0.05942539 101.40444016 0.06491431 113.00781643 0.06993091 C136.86877791 0.08037433 160.72972984 0.09795582 184.59068298 0.12025452 C181.86506695 17.17874732 176.04110828 34.48476646 162.59068298 46.12025452 C161.26117076 46.46851612 159.92851692 46.80547006 158.59068298 47.12025452 C158.26068298 48.11025452 157.93068298 49.10025452 157.59068298 50.12025452 C155.39162784 51.44381452 153.27177532 52.58179668 150.96568298 53.68275452 C150.36111267 53.98632874 149.75654236 54.28990295 149.13365173 54.60267639 C138.50269449 59.80481858 127.96895716 60.26755466 116.35411072 60.26210022 C115.14808701 60.26557465 113.94206329 60.26904907 112.69949341 60.27262878 C110.08921198 60.27995987 107.47892442 60.2853193 104.86863518 60.28891945 C100.72622473 60.29487808 96.58389802 60.31146529 92.44152832 60.33026123 C91.0172606 60.33659757 89.59299283 60.34292321 88.16872501 60.3492384 C87.45571708 60.35240421 86.74270914 60.35557002 86.00809491 60.35883176 C76.37735457 60.40072064 66.74665488 60.43384726 57.11582947 60.44618225 C50.60204801 60.45461018 44.08847648 60.47727196 37.57480007 60.51553792 C34.138715 60.53513704 30.70294248 60.5477577 27.26679802 60.54270363 C7.06146076 60.37375258 7.06146076 60.37375258 -12.40931702 65.12025452 C-13.15664093 65.40038895 -13.90396484 65.68052338 -14.67393494 65.96914673 C-33.14728236 73.62205354 -46.78051976 88.49523241 -54.50306702 106.69837952 C-55.24695027 108.82588562 -55.83738 110.941041 -56.40931702 113.12025452 C-56.58657633 113.77439016 -56.76383564 114.42852581 -56.94646645 115.10248375 C-58.46688282 121.23267107 -58.70549476 127.07198617 -58.69984436 133.36878967 C-58.70656158 134.45791656 -58.71327881 135.54704346 -58.72019958 136.66917419 C-58.73910687 140.24926898 -58.74310045 143.82917549 -58.74525452 147.40931702 C-58.75168855 149.91642837 -58.75841736 152.42353899 -58.76542664 154.9306488 C-58.77738203 160.1808747 -58.78119545 165.43105343 -58.77992249 170.68128967 C-58.77885629 176.04664502 -58.79289916 181.41171161 -58.82093811 186.7769928 C-58.85444945 193.28431793 -58.86802803 199.79138464 -58.86670303 206.29879379 C-58.86904764 208.76489604 -58.87780604 211.23100156 -58.89336777 213.69705582 C-59.02985003 237.56351628 -55.81476678 256.60669323 -38.97181702 274.74525452 C-38.12619202 275.52900452 -37.28056702 276.31275452 -36.40931702 277.12025452 C-35.84857483 277.66294983 -35.28783264 278.20564514 -34.71009827 278.76478577 C-29.46027055 283.6525564 -23.81544057 286.94488491 -17.40931702 290.12025452 C-16.67970764 290.50181702 -15.95009827 290.88337952 -15.19837952 291.27650452 C-3.99831261 296.77244813 8.21654721 297.56611973 20.49058533 297.55262756 C21.92121206 297.56167236 23.35183112 297.57200609 24.78244019 297.58351135 C28.61828691 297.61078914 32.45398549 297.62032547 36.28991652 297.62636542 C40.31646929 297.63582629 44.34291464 297.66203507 48.36940002 297.68637085 C55.97272036 297.72982941 63.5760196 297.75850253 71.17942584 297.78169423 C79.84470261 297.80885742 88.50987021 297.85276147 97.17506862 297.89798295 C114.98021553 297.99053309 132.78539135 298.06234856 150.59068298 298.12025452 C150.58846237 297.2956221 150.58624176 296.47098969 150.58395386 295.62136841 C150.56395247 287.86627194 150.54870964 280.11118791 150.53887081 272.35607243 C150.53364262 268.36868252 150.52654614 264.38131384 150.51524353 260.39393616 C150.50441237 256.54900337 150.49840567 252.70409107 150.49580574 248.85914421 C150.4939519 247.38906469 150.49033208 245.91898633 150.48495293 244.44891548 C150.47773943 242.39670984 150.47669217 240.34458984 150.47715759 238.29237366 C150.47493698 237.12211136 150.47271637 235.95184906 150.47042847 234.74612427 C150.59068298 232.12025452 150.59068298 232.12025452 151.59068298 231.12025452 C154.03898725 231.03181659 156.45888897 231.004967 158.90708923 231.02259827 C159.63814377 231.02401321 160.3691983 231.02542816 161.12240601 231.02688599 C163.46603931 231.03250043 165.80957838 231.0450553 168.15318298 231.05775452 C169.73846807 231.06276766 171.32375464 231.06733089 172.90904236 231.07142639 C176.80295908 231.08247455 180.69680504 231.0997488 184.59068298 231.12025452 C184.63739108 238.96223683 184.6727449 246.80418546 184.69430733 254.64627266 C184.7046655 258.28918051 184.71867551 261.93199196 184.74156189 265.57484436 C184.76357904 269.10213519 184.77531117 272.62933435 184.78043747 276.15668869 C184.78583425 278.13156411 184.80139864 280.10640357 184.817276 282.08122253 C184.81994794 304.01803209 180.45120707 324.36492961 165.14146423 340.72962952 C145.41726965 359.21539841 120.99624411 357.44564143 95.76079655 357.45476866 C93.52395478 357.45620476 91.28713646 357.46050134 89.0503006 357.46576309 C81.20762614 357.48417976 73.36501897 357.49244407 65.52232361 357.49085999 C58.27410802 357.48966006 51.02619086 357.51075476 43.77805066 357.54234731 C37.50144502 357.56870584 31.22493572 357.57921921 24.94827533 357.57794917 C21.22316846 357.57744535 17.49832772 357.5828002 13.77327728 357.60430527 C-24.35616366 357.80904312 -55.44684818 349.84178028 -84.03431702 323.49916077 C-88.19926407 319.32736347 -91.83743874 314.80249196 -95.40931702 310.12025452 C-96.01517639 309.34166077 -96.62103577 308.56306702 -97.24525452 307.76087952 C-116.67951473 281.55540646 -120.05757816 251.56593702 -119.91368747 219.97828126 C-119.89960311 216.1052498 -119.9063228 212.23223988 -119.90982056 208.35919189 C-119.9125036 201.86483682 -119.89920987 195.3706686 -119.87586975 188.87635803 C-119.84923835 181.41558466 -119.84753085 173.9551225 -119.85925812 166.49431783 C-119.87011117 159.25091962 -119.86379244 152.0076317 -119.84970284 144.76424217 C-119.84401121 141.71086135 -119.8439708 138.65756308 -119.84876823 135.60418129 C-119.8844559 105.15305005 -119.8844559 105.15305005 -116.40931702 91.12025452 C-116.186707 90.20214493 -115.96409698 89.28403534 -115.73474121 88.33810425 C-115.09326992 85.86569007 -114.28974802 83.51890906 -113.40931702 81.12025452 C-113.18792053 80.51246155 -112.96652405 79.90466858 -112.73841858 79.27845764 C-101.11540118 47.89481478 -78.45309475 24.56661139 -48.51722717 10.08216858 C-33.40203388 3.18457053 -16.56607113 -0.06658182 0 0 Z " fill="#503A0A" transform="translate(201.40931701660156,120.87974548339844)"/>
<path d="M0 0 C4.7798489 3.02308974 8.95908992 6.4406482 13.1875 10.1875 C18.44224069 14.79495013 23.75966082 19.29274167 29.19140625 23.69140625 C32.5029848 26.41344091 35.75313059 29.20139731 39 32 C43.124643 35.55457492 47.27207904 39.06792298 51.5 42.5 C56.34596789 46.4337857 61.08098528 50.48447759 65.80859375 54.55859375 C70.19543339 58.33108386 74.65502487 62.00333876 79.1484375 65.6484375 C83.1261287 68.92867052 87.02021226 72.30329561 90.91845703 75.67724609 C94.9972413 79.19038443 99.17554036 82.51739495 103.5234375 85.6953125 C104.01070312 86.12585938 104.49796875 86.55640625 105 87 C105 87.66 105 88.32 105 89 C105.7425 89.226875 106.485 89.45375 107.25 89.6875 C110.54618078 91.26067719 111.81688828 93.1126587 114 96 C115.11375 96.8353125 115.11375 96.8353125 116.25 97.6875 C116.8275 98.120625 117.405 98.55375 118 99 C118 99.66 118 100.32 118 101 C118.66 101 119.32 101 120 101 C121.67215281 102.98396192 123.18917664 104.95161941 124.6875 107.0625 C125.13230713 107.68866211 125.57711426 108.31482422 126.03540039 108.95996094 C130.60862688 115.59365211 133.97040653 122.55295459 137 130 C137.33773438 130.825 137.67546875 131.65 138.0234375 132.5 C144.20048563 150.113761 142.25469888 170.65701112 142.1373291 189.04547119 C142.11652546 192.6598471 142.10766316 196.27425281 142.09765625 199.88867188 C142.07648327 206.92585175 142.04254756 213.96291407 142 221 C141.67 221 141.34 221 141 221 C141 293.93 141 366.86 141 442 C139.35 442 137.7 442 136 442 C135.67 441.67 135.34 441.34 135 441 C133.65027644 440.7459704 132.29466084 440.52321112 130.9375 440.3125 C126.35468745 439.44234572 122.1892019 437.97798254 117.875 436.25 C80.90535044 421.76515544 38.99229943 419.36440217 -0.31755447 419.49386978 C-2.42483898 419.5001485 -4.5320806 419.50100948 -6.63937378 419.50131226 C-39.5588487 419.53480724 -72.23145807 422.04758982 -105 425 C-106.80873937 425.16116255 -108.617494 425.32215397 -110.42626953 425.48291016 C-115.91113937 425.97205385 -121.39551563 426.46641426 -126.87915039 426.96923828 C-167.92994752 430.64985545 -208.88912333 432.9210845 -250 429 C-251.0921582 428.89816406 -252.18431641 428.79632812 -253.30957031 428.69140625 C-283.38429021 425.80080724 -313.19107791 420.15200715 -341 408 C-340.50869317 397.15246241 -339.845745 386.32600673 -339 375.5 C-338.9170166 374.40824463 -338.8340332 373.31648926 -338.74853516 372.19165039 C-338.66651855 371.16934326 -338.58450195 370.14703613 -338.5 369.09375 C-338.4278125 368.18302734 -338.355625 367.27230469 -338.28125 366.33398438 C-338 364 -338 364 -337 361 C-331.01399352 362.22170542 -325.28861685 363.81157502 -319.5 365.75 C-303.40315259 370.94097615 -287.03761463 374.74123281 -270.3125 377.25 C-269.30638672 377.40098145 -268.30027344 377.55196289 -267.26367188 377.70751953 C-263.84680839 378.18676651 -260.42738543 378.60256797 -257 379 C-256.27173004 379.08786774 -255.54346008 379.17573547 -254.79312134 379.26626587 C-238.11279849 381.22635608 -221.46542245 381.27569313 -204.69848633 381.19561768 C-201.85613243 381.1848155 -199.01382624 381.18519704 -196.17145538 381.18561649 C-174.68175605 381.18491037 -153.27663854 380.77130668 -131.875 378.6875 C-128.9692329 378.41647891 -126.06285315 378.15251627 -123.15625 377.890625 C-122.3773642 377.82040634 -121.59847839 377.75018768 -120.79598999 377.67784119 C-103.60044163 376.14805152 -86.37714532 374.92480625 -69.1594696 373.67454529 C-63.25595338 373.24478719 -57.35594974 372.78937559 -51.45703125 372.30078125 C-34.18454025 370.94320254 -16.94434721 370.79378275 0.375 370.75 C1.55148102 370.74464233 2.72796204 370.73928467 3.94009399 370.73376465 C30.48806666 370.64190877 57.31121639 371.91886582 83.32910156 377.55493164 C84.58096252 377.82543839 85.83282349 378.09594513 87.12261963 378.37464905 C88.54692291 378.68419777 88.54692291 378.68419777 90 379 C90.07015852 351.06163564 90.12302172 323.12328453 90.15543652 295.18484974 C90.17088897 282.2118262 90.19194752 269.23885749 90.22631836 256.26586914 C90.25627032 244.95533529 90.27558678 233.64484116 90.28226548 222.33426875 C90.2861679 216.34839916 90.29530542 210.36264317 90.31719017 204.37681007 C90.33764687 198.73553522 90.34381527 193.09442008 90.33932304 187.45311165 C90.34014415 185.38965231 90.34605475 183.32618728 90.35761642 181.26276016 C90.47433258 159.34570855 86.55031905 143.50538771 71.7109375 126.703125 C68.1074814 123.11612304 64.01239832 120.10975429 60 117 C53.28576513 111.60841892 46.71477876 106.06270779 40.19238281 100.44238281 C36.66758029 97.41093702 33.10986967 94.43036479 29.5 91.5 C23.41666629 86.55785297 17.47835774 81.45423414 11.54931641 76.32910156 C10.2251238 75.19312542 8.885545 74.07512638 7.54296875 72.9609375 C-2.43557823 64.6041429 -9.53937802 53.12558928 -11 40 C-12.09051372 25.236122 -8.76950482 13.52683238 -1 1 C-0.67 0.67 -0.34 0.34 0 0 Z " fill="#76560F" transform="translate(421,117)"/>
<path d="M0 0 C4.7798489 3.02308974 8.95908992 6.4406482 13.1875 10.1875 C18.44224069 14.79495013 23.75966082 19.29274167 29.19140625 23.69140625 C32.5029848 26.41344091 35.75313059 29.20139731 39 32 C43.124643 35.55457492 47.27207904 39.06792298 51.5 42.5 C56.34596789 46.4337857 61.08098528 50.48447759 65.80859375 54.55859375 C70.19543339 58.33108386 74.65502487 62.00333876 79.1484375 65.6484375 C83.1261287 68.92867052 87.02021226 72.30329561 90.91845703 75.67724609 C94.9972413 79.19038443 99.17554036 82.51739495 103.5234375 85.6953125 C104.25433594 86.34113281 104.25433594 86.34113281 105 87 C105 87.66 105 88.32 105 89 C105.7425 89.226875 106.485 89.45375 107.25 89.6875 C110.54618078 91.26067719 111.81688828 93.1126587 114 96 C115.11375 96.8353125 115.11375 96.8353125 116.25 97.6875 C116.8275 98.120625 117.405 98.55375 118 99 C118 99.66 118 100.32 118 101 C118.66 101 119.32 101 120 101 C121.67215281 102.98396192 123.18917664 104.95161941 124.6875 107.0625 C125.13230713 107.68866211 125.57711426 108.31482422 126.03540039 108.95996094 C130.60862688 115.59365211 133.97040653 122.55295459 137 130 C137.33773437 130.825 137.67546875 131.65 138.0234375 132.5 C144.20048563 150.113761 142.25469888 170.65701112 142.1373291 189.04547119 C142.11652546 192.6598471 142.10766316 196.27425281 142.09765625 199.88867188 C142.07648327 206.92585175 142.04254756 213.96291407 142 221 C141.67 221 141.34 221 141 221 C141.00999275 221.90748993 141.00999275 221.90748993 141.02018738 222.83331299 C141.08653239 229.1272653 141.13179716 235.42111836 141.16479492 241.71533203 C141.1798859 244.06465693 141.20036092 246.41395363 141.22631836 248.76318359 C141.2626872 252.13906815 141.27972338 255.51458037 141.29296875 258.890625 C141.30845261 259.94179504 141.32393646 260.99296509 141.33988953 262.07598877 C141.34022942 263.54706085 141.34022942 263.54706085 141.34057617 265.04785156 C141.35056892 266.3402475 141.35056892 266.3402475 141.36076355 267.65875244 C140.92099833 270.51269722 139.83403068 271.81064599 138 274 C137.5875 274.886875 137.175 275.77375 136.75 276.6875 C129.26962037 290.84679001 117.73461321 298.09920961 103 303 C98.60579468 304.26592065 94.6027085 305 90 305 C90.00276538 304.28015332 90.00553076 303.56030664 90.00837994 302.81864643 C90.07480203 285.25580476 90.12435923 267.69299523 90.15543652 250.13005543 C90.17086697 241.63654363 90.19188287 233.14311597 90.22631836 224.6496582 C90.25633832 217.24171488 90.27560274 209.83383254 90.28226548 202.42583007 C90.28615654 198.50791378 90.29522008 194.59017186 90.31719017 190.67231178 C90.33775506 186.97461206 90.34379405 183.27715632 90.33932304 179.57940483 C90.34052473 177.59589375 90.35656109 175.61240843 90.3732605 173.62896729 C90.30791408 154.41353046 83.66195769 138.59957432 70 125 C66.75152832 122.22215496 63.37775774 119.61788481 60 117 C53.28576513 111.60841892 46.71477876 106.06270779 40.19238281 100.44238281 C36.66758029 97.41093702 33.10986967 94.43036479 29.5 91.5 C23.41666629 86.55785297 17.47835774 81.45423414 11.54931641 76.32910156 C10.2251238 75.19312542 8.885545 74.07512638 7.54296875 72.9609375 C-2.43557823 64.6041429 -9.53937802 53.12558928 -11 40 C-12.09051372 25.236122 -8.76950482 13.52683238 -1 1 C-0.67 0.67 -0.34 0.34 0 0 Z " fill="#7B6D4E" transform="translate(421,117)"/>
<path d="M0 0 C0.66 0 1.32 0 2 0 C3.30097661 2.66246377 4.59082283 5.32944471 5.875 8 C6.42220703 9.11568359 6.42220703 9.11568359 6.98046875 10.25390625 C13.50412936 23.89428752 13.43333077 37.59167501 9 52 C3.64526845 65.07790206 -6.65303869 73.8754809 -17.31054688 82.60888672 C-20.06495822 84.87689768 -22.78058265 87.19026217 -25.5 89.5 C-26.58056253 90.41425949 -27.66129198 91.32832172 -28.7421875 92.2421875 C-30.93698142 94.09911777 -33.12942971 95.95876969 -35.3203125 97.8203125 C-40.30314347 102.05079624 -45.29702715 106.2585368 -50.375 110.375 C-54.85174934 114.01521808 -59.21498305 117.7702852 -63.5625 121.5625 C-80.1460299 136 -80.1460299 136 -83 136 C-87.77448687 129.71131873 -90.66933042 122.48204697 -93 115 C-93.19464844 114.3915625 -93.38929688 113.783125 -93.58984375 113.15625 C-96.28462136 98.98941912 -92.79422936 85.90453411 -85 74 C-80.06057854 67.58741776 -74.33628246 62.4165041 -68.01171875 57.40625 C-64.64877976 54.71938824 -61.38370075 51.93643689 -58.125 49.125 C-56.93374525 48.1000843 -55.74233869 47.07534503 -54.55078125 46.05078125 C-53.96119629 45.54369629 -53.37161133 45.03661133 -52.76416016 44.51416016 C-46.09267077 38.7880908 -39.38491685 33.10820726 -32.5625 27.5625 C-27.70759986 23.61215185 -22.95789919 19.55022052 -18.21801758 15.46362305 C-13.57993315 11.47354875 -8.86921294 7.58667199 -4.109375 3.7421875 C-1.95895522 2.02222481 -1.95895522 2.02222481 0 0 Z " fill="#A89A7C" transform="translate(655,117)"/>
<path d="M0 0 C0.65032782 -0.00085442 1.30065564 -0.00170885 1.97069037 -0.00258917 C4.13556902 -0.0042277 6.30036905 0.00125058 8.46524048 0.00672913 C10.02275592 0.00701138 11.5802715 0.00685253 13.13778687 0.00628662 C17.356317 0.00600012 21.5748186 0.01187309 25.79334211 0.01886058 C30.20559004 0.02511859 34.61783865 0.02569985 39.03009033 0.02688599 C47.3809819 0.02999208 55.73186035 0.03819575 64.08274615 0.04823548 C73.59177149 0.05941902 83.10079747 0.06491271 92.60982776 0.06993091 C112.16661978 0.08037896 131.72340001 0.09796443 151.28018188 0.12025452 C150.97427659 1.86812301 150.66503228 3.61540731 150.35440063 5.36244202 C150.09662842 6.8220636 150.09662842 6.8220636 149.83364868 8.31117249 C148.21164226 16.54355269 144.69652141 24.29809155 137.63613892 29.28041077 C130.56797099 33.75369484 124.34403715 37.24715246 115.80723572 37.24050903 C115.14722051 37.24136346 114.48720531 37.24221788 113.80718964 37.2430982 C111.59153526 37.24474773 109.37595627 37.23924024 107.16030884 37.23377991 C105.57367962 37.2334979 103.98705028 37.23365604 102.40042114 37.23422241 C98.08874144 37.23450984 93.77708944 37.22862186 89.46541619 37.22164845 C84.96106115 37.2154059 80.4567055 37.2148104 75.9523468 37.21362305 C67.42073405 37.2105124 58.88913408 37.20230258 50.35752696 37.19227356 C40.6454311 37.18110417 30.93333464 37.17559988 21.22123396 37.17057812 C1.24087613 37.16011976 -18.73947019 37.14252546 -38.71981812 37.12025452 C-38.41706532 35.18899368 -38.10899982 33.25856515 -37.79867554 31.32850647 C-37.62768845 30.25341324 -37.45670135 29.17832001 -37.28053284 28.07064819 C-35.70227374 19.76609422 -30.396989 12.21064525 -23.71981812 7.12025452 C-15.76920458 2.00914581 -9.47480444 -0.00753164 0 0 Z " fill="#5C430B" transform="translate(315.7198181152344,313.87974548339844)"/>
<path d="M0 0 C1.89142251 0.00747179 3.78285283 0.01316028 5.67428589 0.01715088 C10.62278073 0.03233339 15.57079674 0.07155057 20.519104 0.1159668 C25.58037847 0.15707979 30.64173124 0.17519596 35.703125 0.1953125 C45.61218812 0.23805278 55.5208978 0.30621342 65.4296875 0.390625 C64.98008673 2.45837329 64.52287148 4.5244668 64.0625 6.58984375 C63.80871582 7.74057373 63.55493164 8.89130371 63.29345703 10.0769043 C60.76242527 19.7868235 54.74418405 26.6812603 46.12890625 31.7421875 C39.28414917 35.02861663 32.55614515 35.41677939 25.05859375 35.53125 C23.90681641 35.55058594 22.75503906 35.56992187 21.56835938 35.58984375 C19.18832118 35.62364003 16.80801108 35.64192273 14.42773438 35.64453125 C5.74671089 35.82892415 -0.44869637 37.31380904 -6.7265625 43.5234375 C-7.17 44.18085938 -7.6134375 44.83828125 -8.0703125 45.515625 C-8.534375 46.17820312 -8.9984375 46.84078125 -9.4765625 47.5234375 C-11.58789884 51.12779026 -11.746996 54.27921333 -11.88671875 58.37109375 C-11.92482666 59.41934326 -11.96293457 60.46759277 -12.00219727 61.54760742 C-12.04530029 62.87767822 -12.08840332 64.20774902 -12.1328125 65.578125 C-12.2771875 69.80625 -12.4215625 74.034375 -12.5703125 78.390625 C-24.1203125 78.390625 -35.6703125 78.390625 -47.5703125 78.390625 C-47.63939867 71.57668151 -47.69906968 64.76396657 -47.73510742 57.94995117 C-47.75013979 55.63480498 -47.7705712 53.319687 -47.79663086 51.00463867 C-47.83325846 47.66578176 -47.85009491 44.3273033 -47.86328125 40.98828125 C-47.87876511 39.96291763 -47.89424896 38.93755402 -47.91020203 37.88111877 C-47.91288638 26.26748025 -44.4743301 18.57740206 -36.53125 10.25390625 C-25.51437901 -0.27635383 -14.44522793 -0.1683333 0 0 Z " fill="#F4B934" transform="translate(399.5703125,235.609375)"/>
</svg>
